<svg xmlns="http://www.w3.org/2000/svg" width="27" height="24" viewBox="0 0 27 24" fill="none">
  <path fill-rule="evenodd" clip-rule="evenodd" d="M10.8768 0.465226L10.6613 0.926011L8.48448 0.814727C7.28718 0.753521 6.00675 0.751956 5.63875 0.811423L4.96982 0.919403L4.97018 2.59196L4.97053 4.26452H7.92115H10.8718L10.8195 5.09898L10.7672 5.93361L8.44827 7.11391C7.17284 7.76318 4.79411 8.97183 3.16245 9.79985C0.011334 11.3987 -0.287099 11.6732 0.252863 12.4766C0.489933 12.829 0.662072 12.8716 1.85224 12.8716H3.186V17.4722V22.0727L1.80978 22.1235C0.533458 22.1706 0.414299 22.2075 0.170272 22.6324C-0.0655486 23.043 -0.061089 23.1377 0.212906 23.5453L0.518474 24H11.4747H22.4311L22.7087 23.6135C23.0758 23.1028 23.059 22.8536 22.6296 22.4351C22.3364 22.1492 22.0351 22.0873 20.935 22.0873H19.5971V20.2868V18.4861L20.7238 18.3835C23.293 18.1496 25.3284 16.8109 26.4192 14.6374C26.9624 13.5552 27 13.3621 27 11.6545C27 9.94504 26.9629 9.75464 26.4163 8.66545C24.3987 4.6448 19.0283 3.6888 15.852 6.78493L15.1515 7.46776L13.6283 6.67782L12.1051 5.88787V3.22124C12.1051 1.75455 12.0564 0.430798 11.9968 0.279522C11.8197 -0.170482 11.1195 -0.0545036 10.8768 0.465226ZM23.0424 6.15374C24.244 6.72685 25.3658 7.88559 25.9818 9.1897C26.3684 10.0082 26.4479 10.4286 26.4479 11.6545C26.4479 12.8803 26.3684 13.3008 25.9818 14.1192C25.3616 15.4325 24.2428 16.5822 23.0117 17.1717C22.1375 17.5901 21.7946 17.6532 20.3999 17.6521C19.0591 17.6511 18.6621 17.5831 17.9917 17.2399C15.7778 16.1065 14.6319 14.4645 14.4724 12.1975C14.2612 9.19422 15.9121 6.69642 18.6808 5.83067C19.9352 5.43839 21.838 5.57941 23.0424 6.15374ZM20.2573 7.93897C20.1887 8.00609 20.1323 8.19823 20.1323 8.3662C20.1323 8.56077 19.9066 8.74404 19.5108 8.8715C17.8943 9.39157 17.6858 11.3973 19.1887 11.9701C19.4625 12.0744 20.0242 12.2439 20.437 12.3465C21.2955 12.5602 21.5042 12.7783 21.1962 13.1401C20.9182 13.4663 20.1139 13.463 19.3021 13.1324C18.9498 12.989 18.641 12.8716 18.6159 12.8716C18.5907 12.8716 18.4658 13.1168 18.3385 13.4166C18.1344 13.8968 18.1444 13.9883 18.4225 14.1865C18.5961 14.3101 19.047 14.4623 19.4247 14.5245C19.9484 14.6108 20.1243 14.7271 20.1664 15.0152C20.2407 15.5242 20.9147 15.5318 20.9889 15.0244C21.0247 14.7801 21.2784 14.5659 21.7422 14.3882C22.9684 13.9187 23.3364 12.4955 22.4418 11.6831C22.2427 11.5023 21.5613 11.2177 20.9277 11.0504C19.6883 10.7235 19.4564 10.3976 20.2209 10.0581C20.5583 9.90835 20.8449 9.91235 21.4024 10.0753C22.2096 10.3111 22.3669 10.2358 22.5462 9.52859C22.6589 9.08328 22.6168 9.04155 21.853 8.84246C21.2598 8.68788 21.0256 8.53434 20.9875 8.27509C20.9347 7.91724 20.4898 7.71241 20.2573 7.93897ZM9.78613 17.2186V19.653H8.1807H6.57526V17.3346C6.57526 16.0594 6.62877 14.9639 6.69424 14.9003C6.75953 14.8365 7.48197 14.7843 8.29968 14.7843H9.78613V17.2186ZM15.1048 15.6974C15.4854 16.1995 15.9294 16.7177 16.0916 16.849C16.3169 17.0312 16.3863 17.3894 16.3863 18.3701V19.653H14.7808H13.1754V17.2186V14.7843H13.794C14.3338 14.7843 14.5013 14.901 15.1048 15.6974Z" fill="#34A853"/>
</svg>