<svg xmlns="http://www.w3.org/2000/svg" width="30" height="30" viewBox="0 0 30 30" fill="none">
  <path d="M10.0685 4.88842C10.6889 4.58579 10.9466 3.83745 10.644 3.21696C10.3414 2.59647 9.59302 2.33881 8.97253 2.64144C6.36269 3.91434 4.22282 5.9808 2.8596 8.54462C1.49639 11.1084 0.97983 14.038 1.38395 16.9135C1.48003 17.5971 2.11212 18.0734 2.79575 17.9774C3.47939 17.8812 3.95569 17.2492 3.85962 16.5655C3.52898 14.2129 3.95162 11.816 5.06698 9.7183C6.18233 7.62062 7.93313 5.92989 10.0685 4.88842Z" fill="#FF4667"/>
  <path d="M19.3561 3.21696C19.6587 2.59647 20.4071 2.33881 21.0276 2.64144C23.6375 3.91434 25.7774 5.9808 27.1405 8.54462C28.5037 11.1084 29.0202 14.038 28.6161 16.9135C28.5201 17.5971 27.888 18.0734 27.2044 17.9774C26.5207 17.8812 26.0445 17.2492 26.1405 16.5655C26.4711 14.2129 26.0485 11.816 24.9331 9.7183C23.8177 7.62062 22.067 5.92989 19.9316 4.88842C19.3111 4.58579 19.0535 3.83745 19.3561 3.21696Z" fill="#FF4667"/>
  <path d="M6.6414 24.3784C7.04719 23.8199 7.8289 23.6961 8.38741 24.1019C10.3094 25.4982 12.6242 26.2504 15 26.2504C17.3757 26.2504 19.6905 25.4982 21.6126 24.1019C22.1711 23.6961 22.9527 23.8199 23.3586 24.3784C23.7644 24.9369 23.6405 25.7186 23.082 26.1244C20.7329 27.8311 17.9037 28.7504 15 28.7504C12.0963 28.7504 9.2671 27.8311 6.91795 26.1244C6.35944 25.7186 6.23562 24.9369 6.6414 24.3784Z" fill="#FF4667"/>
  <path d="M15 6.875C10.5127 6.875 6.875 10.5127 6.875 15C6.875 19.4874 10.5127 23.125 15 23.125C19.4874 23.125 23.125 19.4874 23.125 15C23.125 10.5127 19.4874 6.875 15 6.875Z" fill="#FF4667"/>
</svg>