<svg xmlns="http://www.w3.org/2000/svg" width="26" height="21" viewBox="0 0 26 21" fill="none">
  <path fill-rule="evenodd" clip-rule="evenodd" d="M14.5839 0.0437952C13.3491 0.255051 12.4372 0.706435 11.5658 1.5379C8.76984 4.20568 9.86573 8.59846 13.658 9.92396C14.4694 10.2075 15.7894 10.2461 16.7378 10.0139C18.2367 9.6469 19.5251 8.64946 20.1995 7.33393C20.5888 6.57442 20.736 5.96117 20.7374 5.0924C20.7419 2.3383 18.522 0.139055 15.6032 0.00591136C15.2569 -0.00991637 14.7982 0.00715693 14.5839 0.0437952ZM15.6332 1.03691C15.6747 1.14031 15.7087 1.47005 15.7087 1.76968V2.31449H16.516C17.2616 2.31449 17.3271 2.32592 17.3735 2.46456C17.4807 2.78434 17.321 2.82742 16.0281 2.82757C14.7001 2.82764 14.4376 2.89073 14.1342 3.28262C13.9417 3.53132 13.9296 4.0614 14.1105 4.32278C14.3593 4.68242 14.5967 4.76625 15.4931 4.81102C16.2558 4.84912 16.3588 4.87184 16.6577 5.06793C17.0279 5.31091 17.4113 5.93984 17.4106 6.30286C17.4091 7.09578 16.6781 7.8835 15.9439 7.8835H15.7087L15.7076 8.41476C15.7059 9.2359 15.5888 9.4503 15.2388 9.2729C15.1086 9.20695 15.0896 9.11411 15.0896 8.54292V7.88849L14.2577 7.86768L13.4259 7.84687V7.62704V7.40721L14.7414 7.36991C15.5629 7.34661 16.1191 7.29912 16.2226 7.24336C16.5614 7.06083 16.7921 6.71606 16.7909 6.39401C16.7884 5.73079 16.3676 5.3921 15.5462 5.3921C14.4687 5.3921 13.8724 5.12611 13.5315 4.49344C13.2932 4.05099 13.3514 3.38008 13.6648 2.95778C13.9461 2.57872 14.4081 2.31735 14.7994 2.31566L15.0896 2.31449V1.66965C15.0896 1.26583 15.1243 0.991993 15.1825 0.93689C15.3384 0.789237 15.5529 0.836794 15.6332 1.03691ZM0 15.7241V21H1.27681H2.55362V15.7241V10.4482H1.27681H0V15.7241ZM3.17268 15.6875V20.1207H3.78625C4.2408 20.1207 4.43123 20.0909 4.52139 20.0056C4.6291 19.9035 4.64295 19.4081 4.64295 15.6603C4.64295 12.4678 4.6202 11.4085 4.55009 11.3422C4.49275 11.2879 4.21131 11.2542 3.81496 11.2542H3.17268V15.6875ZM23.2148 13.0469C22.47 13.3408 21.2698 13.8117 20.5479 14.0933C19.8259 14.3749 19.2134 14.6509 19.1868 14.7067C18.7848 15.5514 18.5505 15.7879 17.9619 15.9427C17.7999 15.9853 16.5804 16.0165 15.0683 16.0168C12.1778 16.0173 12.0718 16.0312 11.268 16.5163C10.9732 16.6942 10.8581 16.7283 10.7457 16.6713C10.2667 16.4286 11.0759 15.7851 12.166 15.5417C12.5438 15.4573 13.2293 15.4328 15.2444 15.4318C17.6778 15.4305 17.8518 15.4217 18.0844 15.2874C18.6328 14.9708 18.7196 14.2916 18.2667 13.8624L18.0274 13.6357L15.1076 13.5927C11.991 13.5468 11.8689 13.5346 10.343 13.1171C9.18902 12.8013 8.44739 12.7211 6.67425 12.7203L5.26201 12.7198V15.6142C5.26201 17.2061 5.28244 18.5086 5.30744 18.5086C5.35085 18.5086 6.45216 18.749 11.6694 19.8976C12.959 20.1815 14.1618 20.4138 14.3422 20.4138C14.9229 20.4138 15.5523 20.2062 16.244 19.7865C16.6092 19.5648 17.9262 18.7498 19.1706 17.9751C20.4151 17.2005 22.4111 15.9587 23.6064 15.2156C25.0694 14.306 25.8157 13.7983 25.89 13.6621C26.2241 13.0505 25.7655 12.4922 24.9404 12.5062C24.6645 12.5108 24.2207 12.6499 23.2148 13.0469Z" fill="#FFA827"/>
</svg>