<svg xmlns="http://www.w3.org/2000/svg" width="25" height="22" viewBox="0 0 25 22" fill="none">
  <path fill-rule="evenodd" clip-rule="evenodd" d="M11.7485 0.0676317C11.6306 0.116947 9.62197 1.4091 7.28486 2.93911C3.47148 5.4357 3.00869 5.76635 2.77178 6.16269C2.33418 6.89485 2.4293 7.87713 2.99941 8.51573C3.13145 8.66349 3.51738 8.43242 7.67744 5.71483C11.0653 3.50159 12.2845 2.75276 12.5 2.75276C12.7155 2.75276 13.9347 3.50159 17.3226 5.71483C21.4826 8.43242 21.8686 8.66349 22.0006 8.51573C22.571 7.87684 22.6658 6.89485 22.2278 6.16192C21.99 5.76405 21.5254 5.43292 17.6153 2.87428L13.2673 0.0291373L12.615 0.00357002C12.2563 -0.0105063 11.8664 0.0183166 11.7485 0.0676317ZM9.2041 6.50272L5.95703 8.62451V12.248V15.8715H7.61113H9.26514L9.2957 13.4537C9.32451 11.1706 9.33848 11.0114 9.54639 10.5976C9.90186 9.89033 10.4008 9.39536 11.0974 9.05916C11.6528 8.79103 11.8381 8.75024 12.5 8.75024C13.1619 8.75024 13.3472 8.79103 13.9026 9.05916C14.5992 9.39536 15.0981 9.89033 15.4536 10.5976C15.6615 11.0114 15.6755 11.1706 15.7043 13.4537L15.7349 15.8715H17.3889H19.043V12.2477V8.62394L15.7944 6.50224C14.0077 5.33534 12.5246 4.38074 12.4985 4.38083C12.4725 4.38093 10.9899 5.33572 9.2041 6.50272ZM11.7405 10.3755C11.3197 10.586 10.9691 11.0046 10.8441 11.4457C10.7887 11.6415 10.7431 12.7176 10.7428 13.8367L10.7422 15.8715H12.5064H14.2708L14.2398 13.6452C14.2054 11.1612 14.1766 11.0375 13.5159 10.5434C13.0703 10.2101 12.2301 10.1307 11.7405 10.3755ZM2.229 12.4279C2.13906 12.4794 2.02002 12.6612 1.96445 12.832C1.82686 13.2552 0 21.1827 0 21.3565C0 21.4329 0.0911133 21.6089 0.202441 21.7477L0.404785 22H12.5H24.5952L24.7976 21.7477C24.9089 21.6089 25 21.4329 25 21.3565C25 21.1822 23.173 13.2547 23.035 12.8305C22.9792 12.659 22.8521 12.4758 22.7525 12.4235C22.6529 12.3713 22.1071 12.3285 21.5396 12.3285H20.5078V14.5851C20.5078 15.8739 20.4668 16.9168 20.4122 17.0169C20.2086 17.39 19.9281 17.4036 12.5 17.4036C5.07187 17.4036 4.79141 17.39 4.58779 17.0169C4.5332 16.9168 4.49219 15.8739 4.49219 14.5851V12.3285L3.44238 12.3314C2.86494 12.333 2.31895 12.3765 2.229 12.4279Z" fill="#FF4667"/>
</svg>