<svg xmlns="http://www.w3.org/2000/svg" width="27" height="29" viewBox="0 0 27 29" fill="none">
  <path fill-rule="evenodd" clip-rule="evenodd" d="M10.0647 11.589V23.178H10.825C11.2431 23.178 11.5853 23.1659 11.5853 23.151C11.5853 23.1362 11.4395 22.8103 11.2613 22.4269C10.766 21.3608 10.6142 20.6311 10.6194 19.3396C10.6242 18.1576 10.729 17.6161 11.1544 16.5741C11.6541 15.3505 12.6022 14.1982 13.7394 13.4325L14.3368 13.0302V6.5151V0H12.2007H10.0647V11.589ZM5.01396 14.9661L5.03235 23.1411L7.15028 23.1607L9.26821 23.1803V14.9856V6.79102H7.13189H4.99549L5.01396 14.9661ZM15.0608 9.74364C15.0608 11.3798 15.0891 12.6963 15.1241 12.6963C15.159 12.6963 15.3287 12.6455 15.5014 12.5833C15.9279 12.4299 17.0284 12.2539 17.5589 12.2542C17.9496 12.2545 18.5883 12.3319 19.1338 12.4452L19.3329 12.4865V9.63875V6.79102H17.1969H15.0608V9.74364ZM0 17.5681V23.178H2.13603H4.27207V17.5681V11.9581H2.13603H0V17.5681ZM16.6176 13.1426C14.2262 13.5254 12.2496 15.3328 11.5747 17.7536C11.3418 18.5892 11.3386 20.1529 11.5681 20.9752C11.8908 22.1307 12.4036 23.0312 13.1906 23.8243C14.0288 24.669 14.8322 25.147 15.9735 25.4801C16.7958 25.7203 18.322 25.7203 19.1443 25.4801C20.2856 25.147 21.089 24.669 21.9272 23.8243C23.0208 22.7223 23.6291 21.3409 23.7231 19.7456C23.8992 16.7607 21.9573 14.0442 19.1013 13.2802C18.4778 13.1135 17.2313 13.0444 16.6176 13.1426ZM18.6222 14.2092C18.9339 14.2741 19.4577 14.473 19.8952 14.6924C21.1408 15.3173 22.0177 16.35 22.4937 17.7526C22.6745 18.2857 22.6943 18.4436 22.6969 19.3766C22.6997 20.3518 22.6871 20.4464 22.4729 21.0567C22.1593 21.9503 21.8497 22.4537 21.215 23.1023C20.5895 23.7416 19.9757 24.1316 19.1519 24.4133C18.6332 24.5908 18.4666 24.6115 17.5589 24.6115C16.6512 24.6115 16.4847 24.5908 15.9659 24.4133C15.1422 24.1316 14.5283 23.7416 13.9028 23.1023C13.2679 22.4535 12.9583 21.9498 12.6452 21.0567C12.4321 20.4484 12.4187 20.3486 12.4195 19.3766C12.4204 18.4373 12.4389 18.2893 12.6225 17.7526C13.5146 15.1452 16.0184 13.6664 18.6222 14.2092ZM17.1212 15.461C16.9726 15.6125 16.9434 15.7137 16.9434 16.0784V16.5146L16.6222 16.6397C15.9231 16.9119 15.4675 17.7942 15.6424 18.5374C15.835 19.3557 16.4681 19.8507 17.3272 19.8543C17.9271 19.8568 18.2164 19.99 18.2818 20.2936C18.3799 20.7494 18.1119 20.9636 17.4436 20.9636C16.9996 20.9636 16.9882 20.9584 16.6826 20.6191C16.4436 20.3537 16.3218 20.2747 16.152 20.2747C15.6735 20.2747 15.4844 20.8 15.7846 21.2952C15.9473 21.5636 16.3569 21.8768 16.7086 22.0018C16.9347 22.0822 16.9434 22.1002 16.9434 22.4874C16.9434 22.8159 16.976 22.9226 17.1212 23.0706C17.219 23.1703 17.3833 23.2519 17.4865 23.2519C17.5897 23.2519 17.7541 23.1703 17.8518 23.0706C17.9968 22.9229 18.0296 22.8158 18.0296 22.4902V22.0909L18.3541 21.9645C19.0111 21.7087 19.4962 20.8532 19.3708 20.1715C19.2074 19.284 18.5333 18.7595 17.5467 18.7524C16.9901 18.7483 16.8925 18.7104 16.7582 18.4455C16.628 18.1889 16.6848 17.9013 16.8954 17.7509C17.1329 17.5813 17.9963 17.6022 18.1464 17.7811C18.566 18.2811 18.6122 18.3153 18.8382 18.2924C19.1566 18.26 19.3666 17.9591 19.3049 17.6237C19.2349 17.2431 18.8096 16.7825 18.3872 16.6295L18.0296 16.5V16.0711C18.0296 15.7141 17.9997 15.6117 17.8518 15.461C17.7541 15.3614 17.5897 15.2798 17.4865 15.2798C17.3833 15.2798 17.219 15.3614 17.1212 15.461ZM22.1371 24.0469L21.6495 24.5478L22.085 24.9871L22.5204 25.4264L23.0077 24.9297L23.495 24.433L23.0599 23.9894L22.6248 23.5459L22.1371 24.0469ZM23.1704 25.1343L22.2672 26.0572L23.6059 27.4235C24.6023 28.4405 25.023 28.8204 25.2514 28.9093C26.3125 29.3227 27.3339 28.2494 26.8961 27.1811C26.8264 27.0112 26.2859 26.3973 25.4686 25.5596C24.7451 24.8181 24.1352 24.2115 24.1133 24.2115C24.0914 24.2115 23.667 24.6267 23.1704 25.1343Z" fill="#FFA827"/>
</svg>