<svg width="31" height="31" viewBox="0 0 31 31" fill="none" xmlns="http://www.w3.org/2000/svg">
<g id="mdi:about">
<path id="Vector" d="M16.711 11.8669H14.289V9.44488H16.711M16.711 21.5551H14.289V14.289H16.711M15.5 3.38977C13.9096 3.38977 12.3349 3.70301 10.8656 4.31161C9.39633 4.9202 8.06131 5.81223 6.93677 6.93677C4.66566 9.20788 3.38977 12.2882 3.38977 15.5C3.38977 18.7118 4.66566 21.7921 6.93677 24.0632C8.06131 25.1877 9.39633 26.0798 10.8656 26.6884C12.3349 27.297 13.9096 27.6102 15.5 27.6102C18.7118 27.6102 21.7921 26.3343 24.0632 24.0632C26.3343 21.7921 27.6102 18.7118 27.6102 15.5C27.6102 13.9096 27.297 12.3349 26.6884 10.8656C26.0798 9.39633 25.1877 8.06131 24.0632 6.93677C22.9387 5.81223 21.6036 4.9202 20.1344 4.31161C18.6651 3.70301 17.0903 3.38977 15.5 3.38977Z" fill="#34A853"/>
</g>
</svg>
