<svg width="28" height="24" viewBox="0 0 28 24" fill="none" xmlns="http://www.w3.org/2000/svg">
<path d="M13.1591 10.87C13.0591 10.86 12.9391 10.86 12.8291 10.87C10.4491 10.79 8.55908 8.84 8.55908 6.44C8.55908 3.99 10.5391 2 12.9991 2C15.4491 2 17.4391 3.99 17.4391 6.44C17.4291 8.84 15.5391 10.79 13.1591 10.87Z" stroke="#A8A6BF" stroke-linecap="round" stroke-linejoin="round"/>
<path d="M20.4091 4C22.3491 4 23.9091 5.57 23.9091 7.5C23.9091 9.39 22.4091 10.93 20.5391 11C20.4591 10.99 20.3691 10.99 20.2791 11" stroke="#A8A6BF" stroke-linecap="round" stroke-linejoin="round"/>
<path d="M8.15899 14.56C5.73899 16.18 5.73899 18.82 8.15899 20.43C10.909 22.27 15.419 22.27 18.169 20.43C20.589 18.81 20.589 16.17 18.169 14.56C15.429 12.73 10.919 12.73 8.15899 14.56Z" stroke="#A8A6BF" stroke-linecap="round" stroke-linejoin="round"/>
<path d="M22.3391 20C23.0591 19.85 23.7391 19.56 24.2991 19.13C25.8591 17.96 25.8591 16.03 24.2991 14.86C23.7491 14.44 23.0791 14.16 22.3691 14" stroke="#A8A6BF" stroke-linecap="round" stroke-linejoin="round"/>
<path d="M4.12988 20C3.40988 19.85 2.72988 19.56 2.16988 19.13C0.609884 17.96 0.609884 16.03 2.16988 14.86C2.71988 14.44 3.38988 14.16 4.09988 14" stroke="#A8A6BF" stroke-linecap="round" stroke-linejoin="round"/>
<path d="M6.05848 4C4.11848 4 2.55848 5.57 2.55848 7.5C2.55848 9.39 4.05848 10.93 5.92848 11C6.00848 10.99 6.09848 10.99 6.18848 11" stroke="#A8A6BF" stroke-linecap="round" stroke-linejoin="round"/>
</svg>
