<svg width="17" height="16" viewBox="0 0 17 16" fill="none" xmlns="http://www.w3.org/2000/svg">
<path d="M8.20547 7.24668C8.14621 7.24001 8.0751 7.24001 8.00991 7.24668C6.59955 7.19334 5.47955 5.89334 5.47955 4.29334C5.47955 2.66001 6.65288 1.33334 8.11065 1.33334C9.5625 1.33334 10.7418 2.66001 10.7418 4.29334C10.7358 5.89334 9.61583 7.19334 8.20547 7.24668Z" stroke="#FF4667" stroke-linecap="round" stroke-linejoin="round"/>
<path d="M12.5017 2.66666C13.6513 2.66666 14.5758 3.71332 14.5758 4.99999C14.5758 6.25999 13.6869 7.28666 12.5788 7.33332C12.5313 7.32666 12.478 7.32666 12.4247 7.33332" stroke="#FF4667" stroke-width="0.7" stroke-linecap="round" stroke-linejoin="round"/>
<path d="M5.24254 9.70666C3.80848 10.7867 3.80848 12.5467 5.24254 13.62C6.87217 14.8467 9.54475 14.8467 11.1744 13.62C12.6084 12.54 12.6084 10.78 11.1744 9.70666C9.55067 8.48666 6.87809 8.48666 5.24254 9.70666Z" stroke="#FF4667" stroke-linecap="round" stroke-linejoin="round"/>
<path d="M13.6454 13.3333C14.0721 13.2333 14.4751 13.04 14.8069 12.7533C15.7314 11.9733 15.7314 10.6867 14.8069 9.90668C14.481 9.62668 14.084 9.44001 13.6632 9.33334" stroke="#FF4667" stroke-width="0.7" stroke-linecap="round" stroke-linejoin="round"/>
<path d="M2.85547 13.3359C2.4288 13.2359 2.02584 13.0426 1.69399 12.7559C0.769552 11.9759 0.769552 10.6893 1.69399 9.90927C2.01992 9.62927 2.41695 9.4426 2.83769 9.33594" stroke="#FF4667" stroke-width="0.7" stroke-linecap="round" stroke-linejoin="round"/>
<path d="M3.99914 2.66406C2.84951 2.66406 1.92507 3.71073 1.92507 4.9974C1.92507 6.2574 2.81395 7.28406 3.9221 7.33073C3.96951 7.32406 4.02284 7.32406 4.07617 7.33073" stroke="#FF4667" stroke-width="0.7" stroke-linecap="round" stroke-linejoin="round"/>
</svg>
