<svg xmlns="http://www.w3.org/2000/svg" width="16" height="16" viewBox="0 0 16 16" fill="none">
  <path d="M9.33203 12.6667C11.846 12.6667 13.1034 12.6667 13.884 11.8853C14.6654 11.1047 14.6654 9.84733 14.6654 7.33333C14.6654 4.81933 14.6654 3.562 13.884 2.78133C13.1034 2 11.846 2 9.33203 2H6.66536C4.15136 2 2.89403 2 2.11336 2.78133C1.33203 3.562 1.33203 4.81933 1.33203 7.33333C1.33203 9.84733 1.33203 11.1047 2.11336 11.8853C2.5487 12.3213 3.13203 12.514 3.9987 12.5987" stroke="#FFBC34" stroke-linecap="round" stroke-linejoin="round"/>
  <path d="M9.33154 12.6719C8.50754 12.6719 7.59954 13.0052 6.77087 13.4352C5.43887 14.1265 4.77287 14.4725 4.44487 14.2519C4.11687 14.0319 4.17887 13.3485 4.30354 11.9825L4.33154 11.6719" stroke="#FFBC34" stroke-linecap="round"/>
</svg>