<svg width="32" height="32" viewBox="0 0 32 32" fill="none" xmlns="http://www.w3.org/2000/svg">
<path d="M22.9568 23.7585C22.5967 24.1185 22.1084 24.3208 21.5992 24.3208C21.09 24.3208 20.6017 24.1185 20.2416 23.7585L16 18.9105L11.7584 23.7569C11.5806 23.9375 11.3689 24.0812 11.1353 24.1796C10.9018 24.2781 10.651 24.3293 10.3976 24.3303C10.1441 24.3313 9.89296 24.2822 9.6586 24.1857C9.42425 24.0891 9.21132 23.9472 9.0321 23.768C8.85288 23.5887 8.71092 23.3758 8.6144 23.1415C8.51789 22.9071 8.46873 22.6559 8.46976 22.4025C8.47079 22.149 8.52199 21.8983 8.62042 21.6647C8.71884 21.4312 8.86253 21.2194 9.0432 21.0417L13.456 16.0017L9.0416 10.9585C8.86093 10.7807 8.71724 10.5689 8.61882 10.3354C8.52039 10.1018 8.46919 9.85107 8.46816 9.59762C8.46713 9.34417 8.51629 9.09302 8.6128 8.85866C8.70932 8.6243 8.85128 8.41137 9.0305 8.23215C9.20972 8.05294 9.42265 7.91097 9.657 7.81446C9.89136 7.71794 10.1425 7.66878 10.396 7.66982C10.6494 7.67085 10.9002 7.72205 11.1337 7.82047C11.3673 7.91889 11.579 8.06258 11.7568 8.24326L16 13.0929L20.2416 8.24326C20.4194 8.06258 20.6311 7.91889 20.8647 7.82047C21.0982 7.72205 21.349 7.67085 21.6024 7.66982C21.8559 7.66878 22.107 7.71794 22.3414 7.81446C22.5758 7.91097 22.7887 8.05294 22.9679 8.23215C23.1471 8.41137 23.2891 8.6243 23.3856 8.85866C23.4821 9.09302 23.5313 9.34417 23.5302 9.59762C23.5292 9.85107 23.478 10.1018 23.3796 10.3354C23.2812 10.5689 23.1375 10.7807 22.9568 10.9585L18.544 16.0017L22.9568 21.0417C23.1353 21.22 23.2769 21.4317 23.3736 21.6648C23.4702 21.8979 23.5199 22.1477 23.5199 22.4001C23.5199 22.6524 23.4702 22.9022 23.3736 23.1353C23.2769 23.3684 23.1353 23.5801 22.9568 23.7585Z" fill="#F4473E"/>
</svg>
