<svg width="35" height="35" viewBox="0 0 35 35" fill="none" xmlns="http://www.w3.org/2000/svg">
<path d="M31.7761 2.15586L32.6365 3.01627C33.8221 4.20336 33.6427 6.30773 32.2325 7.71648L14.489 25.46L8.74022 27.5629C8.01835 27.8284 7.31543 27.4842 7.17252 26.7973C7.12422 26.5481 7.14696 26.2904 7.23814 26.0536L9.38189 20.2552L27.0758 2.55982C28.4861 1.15107 30.5904 0.968774 31.7761 2.15586ZM13.7146 3.92044C13.9061 3.92044 14.0957 3.95816 14.2727 4.03145C14.4496 4.10474 14.6104 4.21216 14.7458 4.34758C14.8812 4.483 14.9886 4.64376 15.0619 4.82069C15.1352 4.99763 15.1729 5.18726 15.1729 5.37877C15.1729 5.57029 15.1352 5.75992 15.0619 5.93685C14.9886 6.11379 14.8812 6.27455 14.7458 6.40997C14.6104 6.54539 14.4496 6.65281 14.2727 6.7261C14.0957 6.79939 13.9061 6.83711 13.7146 6.83711H7.88127C7.10772 6.83711 6.36585 7.1444 5.81887 7.69138C5.27189 8.23836 4.9646 8.98023 4.9646 9.75377V27.2538C4.9646 28.0273 5.27189 28.7692 5.81887 29.3162C6.36585 29.8631 7.10772 30.1704 7.88127 30.1704H25.3813C26.1548 30.1704 26.8967 29.8631 27.4437 29.3162C27.9906 28.7692 28.2979 28.0273 28.2979 27.2538V21.4204C28.2979 21.0337 28.4516 20.6627 28.7251 20.3892C28.9986 20.1158 29.3695 19.9621 29.7563 19.9621C30.143 19.9621 30.514 20.1158 30.7875 20.3892C31.061 20.6627 31.2146 21.0337 31.2146 21.4204V27.2538C31.2146 28.8009 30.6 30.2846 29.5061 31.3786C28.4121 32.4725 26.9284 33.0871 25.3813 33.0871H7.88127C6.33417 33.0871 4.85044 32.4725 3.75648 31.3786C2.66251 30.2846 2.04793 28.8009 2.04793 27.2538V9.75377C2.04793 8.20668 2.66251 6.72295 3.75648 5.62898C4.85044 4.53502 6.33417 3.92044 7.88127 3.92044H13.7146Z" fill="#FFA827"/>
</svg>
