<svg xmlns="http://www.w3.org/2000/svg" width="18" height="18" viewBox="0 0 18 18" fill="none">
  <path d="M12.15 15.75H5.19853C4.74416 15.75 4.51699 15.75 4.41179 15.6601C4.32051 15.5822 4.27207 15.4652 4.28149 15.3456C4.29234 15.2077 4.45298 15.047 4.77427 14.7257L11.1514 8.34855C11.4484 8.05155 11.597 7.90297 11.7682 7.8474C11.9188 7.79842 12.0812 7.79842 12.2318 7.8474C12.403 7.90297 12.5515 8.05155 12.8485 8.34855L15.75 11.25V12.15M12.15 15.75C13.4102 15.75 14.0401 15.75 14.5215 15.5048C14.9449 15.2891 15.2891 14.9449 15.5048 14.5215C15.75 14.0401 15.75 13.4102 15.75 12.15M12.15 15.75H5.85C4.58988 15.75 3.95982 15.75 3.47852 15.5048C3.05516 15.2891 2.71095 14.9449 2.49524 14.5215C2.25 14.0401 2.25 13.4102 2.25 12.15V5.85C2.25 4.58988 2.25 3.95982 2.49524 3.47852C2.71095 3.05516 3.05516 2.71095 3.47852 2.49524C3.95982 2.25 4.58988 2.25 5.85 2.25H12.15C13.4102 2.25 14.0401 2.25 14.5215 2.49524C14.9449 2.71095 15.2891 3.05516 15.5048 3.47852C15.75 3.95982 15.75 4.58988 15.75 5.85V12.15M7.875 6.375C7.875 7.20343 7.20343 7.875 6.375 7.875C5.54657 7.875 4.875 7.20343 4.875 6.375C4.875 5.54657 5.54657 4.875 6.375 4.875C7.20343 4.875 7.875 5.54657 7.875 6.375Z" stroke="#FF4667" stroke-linecap="round" stroke-linejoin="round"/>
</svg>