<svg width="24" height="24" viewBox="0 0 24 24" fill="none" xmlns="http://www.w3.org/2000/svg">
<path d="M22.4 1.59998V20.8H1.60001V13.952C1.60128 13.8397 1.62615 13.729 1.67301 13.627C1.71988 13.525 1.78767 13.434 1.87201 13.36L6.67201 8.20798C6.78802 8.10605 6.93105 8.03987 7.08384 8.01744C7.23663 7.99501 7.39265 8.01729 7.53306 8.08157C7.67347 8.14586 7.79228 8.24941 7.87513 8.37972C7.95799 8.51004 8.00136 8.66155 8.00001 8.81598V13.616L13.056 8.22398C13.1705 8.1178 13.3135 8.04745 13.4675 8.02158C13.6215 7.99572 13.7796 8.01547 13.9225 8.0784C14.0654 8.14134 14.1867 8.24471 14.2716 8.37577C14.3564 8.50683 14.4011 8.65985 14.4 8.81598V17.6H19.2V1.59998H22.4Z" fill="#603CF7"/>
</svg>
