<svg width="29" height="29" viewBox="0 0 29 29" fill="none" xmlns="http://www.w3.org/2000/svg">
<circle cx="14.2235" cy="14.2418" r="14.2235" fill="#ED4546"/>
<path d="M14.4435 12.9799L21.613 8.37419C21.3247 8.15799 20.9747 8.04001 20.6144 8.0376H8.27261C7.91231 8.04001 7.56229 8.15799 7.27405 8.37419L14.4435 12.9799Z" fill="white"/>
<path d="M14.744 14.1153L14.6486 14.1602H14.6037C14.5521 14.1833 14.4972 14.1984 14.441 14.2051C14.3945 14.2109 14.3473 14.2109 14.3008 14.2051H14.2559L14.1605 14.1602L6.64326 9.302C6.60734 9.4375 6.5885 9.57696 6.58716 9.71714V17.571C6.58716 18.0174 6.76447 18.4454 7.08009 18.7611C7.39571 19.0767 7.82378 19.254 8.27013 19.254H20.6119C21.0583 19.254 21.4864 19.0767 21.802 18.7611C22.1176 18.4454 22.2949 18.0174 22.2949 17.571V9.71714C22.2936 9.57696 22.2747 9.4375 22.2388 9.302L14.744 14.1153Z" fill="white"/>
</svg>
