<svg width="28" height="28" viewBox="0 0 28 28" fill="none" xmlns="http://www.w3.org/2000/svg">
<g id="menu-04">
<path id="Vector" fill-rule="evenodd" clip-rule="evenodd" d="M2.33398 14.0026C2.33398 13.3583 2.85632 12.8359 3.50065 12.8359H24.5007C25.145 12.8359 25.6673 13.3583 25.6673 14.0026C25.6673 14.647 25.145 15.1693 24.5007 15.1693H3.50065C2.85632 15.1693 2.33398 14.647 2.33398 14.0026Z" fill="white"/>
<path id="Vector_2" fill-rule="evenodd" clip-rule="evenodd" d="M2.33398 7.0026C2.33398 6.35828 2.85632 5.83594 3.50065 5.83594H24.5007C25.145 5.83594 25.6673 6.35828 25.6673 7.0026C25.6673 7.64693 25.145 8.16927 24.5007 8.16927H3.50065C2.85632 8.16927 2.33398 7.64693 2.33398 7.0026Z" fill="white"/>
<path id="Vector_3" fill-rule="evenodd" clip-rule="evenodd" d="M9.33398 21.0026C9.33398 20.3583 9.85632 19.8359 10.5007 19.8359H24.5007C25.145 19.8359 25.6673 20.3583 25.6673 21.0026C25.6673 21.647 25.145 22.1693 24.5007 22.1693H10.5007C9.85632 22.1693 9.33398 21.647 9.33398 21.0026Z" fill="white"/>
</g>
</svg>
