<svg width="29" height="29" viewBox="0 0 29 29" fill="none" xmlns="http://www.w3.org/2000/svg">
<circle cx="14.2235" cy="14.308" r="14.2235" fill="#77F393"/>
<path d="M9.76297 22.0027C9.41755 22.0027 9.14121 21.9336 8.79579 21.8645C8.58853 21.7954 8.38128 21.6572 8.24311 21.5191L8.17403 21.45C8.10494 21.3809 8.03586 21.2427 8.03586 21.1737C8.03586 21.0355 8.10494 20.9664 8.24311 20.8973C8.79579 20.621 9.27938 20.1374 9.55572 19.5847C9.6248 19.5156 9.69389 19.4465 9.69389 19.3775C7.75952 18.203 6.58508 16.3377 6.58508 14.3343C6.58508 10.8801 10.1775 7.97852 14.5298 7.97852C18.8821 7.97852 22.4745 10.8801 22.4745 14.3343C22.4745 17.7885 18.8821 20.6901 14.5298 20.6901C14.1153 20.6901 13.6317 20.6901 13.2172 20.621C12.1809 21.5191 10.9374 22.0027 9.76297 22.0027Z" fill="white"/>
</svg>
