<svg width="29" height="29" viewBox="0 0 29 29" fill="none" xmlns="http://www.w3.org/2000/svg">
<circle cx="14.2235" cy="14.4591" r="14.2235" fill="#008EFF"/>
<path d="M14.5329 7.25885C13.621 7.22574 12.7119 7.37743 11.8601 7.70479C11.0084 8.03216 10.2317 8.52843 9.57669 9.16376C8.92172 9.79909 8.40202 10.5603 8.04887 11.4017C7.69573 12.2431 7.51642 13.1472 7.52175 14.0597C7.51 15.007 7.70027 15.946 8.07988 16.814C8.45949 17.682 9.01973 18.4592 9.72326 19.0937C9.77912 19.1435 9.8246 19.2038 9.85708 19.2712C9.88957 19.3385 9.90843 19.4117 9.91257 19.4864V20.7343C9.91641 20.8263 9.94256 20.916 9.98878 20.9957C10.035 21.0753 10.0999 21.1425 10.1778 21.1915C10.2558 21.2405 10.3445 21.2698 10.4363 21.2769C10.5281 21.2839 10.6203 21.2686 10.7048 21.2321L12.1071 20.6222C12.2268 20.5769 12.3589 20.5769 12.4787 20.6222C13.1415 20.8011 13.8253 20.8907 14.5119 20.8886C16.3193 20.8914 18.0538 20.1761 19.3338 18.9C20.6138 17.6239 21.3345 15.8917 21.3373 14.0842C21.3401 12.2768 20.6248 10.5423 19.3487 9.26232C18.0726 7.98231 16.3404 7.26164 14.5329 7.25885ZM18.7396 12.4892L16.6854 15.7564C16.6079 15.8794 16.5058 15.985 16.3854 16.0666C16.2651 16.1481 16.1291 16.2038 15.9861 16.2302C15.8432 16.2565 15.6963 16.253 15.5548 16.2197C15.4133 16.1864 15.2802 16.1242 15.1639 16.0369L13.5233 14.8099C13.4505 14.7553 13.3619 14.7258 13.2709 14.7258C13.1799 14.7258 13.0913 14.7553 13.0185 14.8099L10.803 16.4926C10.7413 16.5402 10.6647 16.5643 10.5869 16.5608C10.509 16.5573 10.435 16.5263 10.3778 16.4734C10.3206 16.4204 10.2841 16.3489 10.2746 16.2716C10.2652 16.1942 10.2835 16.116 10.3262 16.0509L12.3805 12.7837C12.458 12.6607 12.5601 12.555 12.6805 12.4735C12.8008 12.392 12.9368 12.3363 13.0797 12.3099C13.2227 12.2835 13.3696 12.2871 13.5111 12.3204C13.6526 12.3537 13.7857 12.4159 13.9019 12.5032L15.5425 13.7302C15.6154 13.7848 15.7039 13.8143 15.795 13.8143C15.886 13.8143 15.9745 13.7848 16.0474 13.7302L18.2629 12.0475C18.3246 11.9999 18.4012 11.9757 18.479 11.9792C18.5568 11.9828 18.6309 12.0137 18.6881 12.0667C18.7452 12.1197 18.7818 12.1912 18.7912 12.2685C18.8007 12.3459 18.7824 12.424 18.7396 12.4892Z" fill="white"/>
</svg>
