<svg width="19" height="19" viewBox="0 0 19 19" fill="none" xmlns="http://www.w3.org/2000/svg">
<path d="M9.5 8.3125C8.84418 8.3125 8.3125 8.84418 8.3125 9.5C8.3125 10.1558 8.84418 10.6875 9.5 10.6875C10.1558 10.6875 10.6875 10.1558 10.6875 9.5C10.6875 8.84418 10.1558 8.3125 9.5 8.3125Z" fill="#603CF7"/>
<path fill-rule="evenodd" clip-rule="evenodd" d="M4.08612 3.16675H14.9138C15.3311 3.16674 15.6912 3.16673 15.9877 3.19095C16.3007 3.21653 16.612 3.27298 16.9115 3.42562C17.3584 3.65332 17.7217 4.01664 17.9494 4.46352C18.1021 4.76307 18.1585 5.07437 18.1841 5.38736C18.2083 5.68388 18.2083 6.0439 18.2083 6.46122V12.539C18.2083 12.9563 18.2083 13.3163 18.1841 13.6128C18.1585 13.9258 18.1021 14.2371 17.9494 14.5367C17.7217 14.9836 17.3584 15.3469 16.9115 15.5745C16.612 15.7272 16.3007 15.7836 15.9877 15.8092C15.6912 15.8334 15.3311 15.8334 14.9139 15.8334H4.086C3.66873 15.8334 3.30874 15.8334 3.01223 15.8092C2.69925 15.7836 2.38795 15.7272 2.0884 15.5745C1.64152 15.3469 1.27818 14.9836 1.05049 14.5367C0.89786 14.2371 0.841399 13.9258 0.815828 13.6128C0.791604 13.3163 0.791615 12.9563 0.791627 12.539V6.4612C0.791615 6.0439 0.791604 5.68388 0.815828 5.38735C0.841399 5.07437 0.89786 4.76307 1.05049 4.46352C1.27818 4.01663 1.64152 3.65331 2.0884 3.42561C2.38795 3.27298 2.69925 3.21652 3.01224 3.19095C3.30875 3.16673 3.66881 3.16673 4.08612 3.16675ZM6.72913 9.50008C6.72913 7.96979 7.96967 6.72925 9.49996 6.72925C11.0303 6.72925 12.2708 7.96979 12.2708 9.50008C12.2708 11.0304 11.0303 12.2709 9.49996 12.2709C7.96967 12.2709 6.72913 11.0304 6.72913 9.50008ZM4.74996 7.12508C5.18719 7.12508 5.54163 7.47953 5.54163 7.91675V11.0834C5.54163 11.5207 5.18719 11.8751 4.74996 11.8751C4.31274 11.8751 3.95829 11.5207 3.95829 11.0834V7.91675C3.95829 7.47953 4.31274 7.12508 4.74996 7.12508ZM15.0416 7.91675C15.0416 7.47953 14.6872 7.12508 14.25 7.12508C13.8127 7.12508 13.4583 7.47953 13.4583 7.91675V11.0834C13.4583 11.5207 13.8127 11.8751 14.25 11.8751C14.6872 11.8751 15.0416 11.5207 15.0416 11.0834V7.91675Z" fill="#603CF7"/>
</svg>
