<svg width="24" height="24" viewBox="0 0 24 24" fill="none" xmlns="http://www.w3.org/2000/svg">
<g id="bell-03.1">
<path id="Vector" d="M15.0007 19C15.0007 20.6569 13.6576 22 12.0007 22C10.3439 22 9.00069 20.6569 9.00069 19M13.7972 6.23856C14.2327 5.78864 14.5007 5.17562 14.5007 4.5C14.5007 3.11929 13.3814 2 12.0007 2C10.62 2 9.50069 3.11929 9.50069 4.5C9.50069 5.17562 9.76869 5.78864 10.2042 6.23856M18.0007 11.2C18.0007 9.82087 17.3686 8.49823 16.2434 7.52304C15.1181 6.54786 13.592 6 12.0007 6C10.4094 6 8.88327 6.54786 7.75805 7.52304C6.63283 8.49823 6.00069 9.82087 6.00069 11.2C6.00069 13.4818 5.43482 15.1506 4.72875 16.3447C3.92403 17.7056 3.52167 18.3861 3.53756 18.5486C3.55573 18.7346 3.58921 18.7933 3.74003 18.9036C3.87186 19 4.5342 19 5.85888 19H18.1425C19.4672 19 20.1296 19 20.2614 18.9036C20.4122 18.7933 20.4457 18.7346 20.4639 18.5486C20.4797 18.3861 20.0774 17.7056 19.2727 16.3447C18.5666 15.1506 18.0007 13.4818 18.0007 11.2Z" stroke="white" stroke-linecap="round" stroke-linejoin="round"/>
</g>
</svg>
