<svg width="20" height="20" viewBox="0 0 20 20" fill="none" xmlns="http://www.w3.org/2000/svg">
<path fill-rule="evenodd" clip-rule="evenodd" d="M18.0893 1.911C16.8434 0.665086 14.8233 0.665084 13.5774 1.91099L4.14697 11.3415C3.95237 11.536 3.80515 11.6831 3.67616 11.8493C3.56213 11.9962 3.46061 12.1525 3.37265 12.3163C3.27313 12.5017 3.19846 12.6961 3.09975 12.9529L1.30557 17.6177C1.26816 17.7151 1.24998 17.8164 1.25 17.9169C1.25002 18.134 1.33491 18.3471 1.4941 18.5062C1.72697 18.7391 2.07513 18.813 2.38251 18.6947L6.86563 16.9705C6.89108 16.9607 6.91705 16.9507 6.94314 16.9407L7.04739 16.9005C7.3042 16.8018 7.49854 16.7272 7.68392 16.6277C7.84779 16.5397 8.00401 16.4382 8.15094 16.3242C8.31717 16.1952 8.46433 16.0479 8.65883 15.8533L18.0893 6.42284C19.3352 5.17693 19.3352 3.15691 18.0893 1.911ZM4.48416 13.9963L3.53423 16.4661L6.00401 15.5162L4.48416 13.9963Z" fill="#FBBC05"/>
</svg>
