<svg width="22" height="22" viewBox="0 0 22 22" fill="none" xmlns="http://www.w3.org/2000/svg">
<g id="mdi:post-it-note-edit-outline">
<path id="Vector" d="M16.6192 11L17.7742 9.845C18.1775 9.44167 18.6908 9.22167 19.25 9.16667V8.25L13.75 2.75H4.58333C3.56583 2.75 2.75 3.56583 2.75 4.58333V17.4167C2.75 17.9029 2.94315 18.3692 3.28697 18.713C3.63079 19.0568 4.0971 19.25 4.58333 19.25H10.0833V17.5358L10.2025 17.4167H4.58333V4.58333H11V11H16.6192ZM12.8333 4.125L17.875 9.16667H12.8333V4.125ZM17.5358 12.6775L19.4058 14.5475L13.7867 20.1667H11.9167V18.2967L17.5358 12.6775ZM20.9458 13.0075L20.0475 13.9058L18.1775 12.0358L19.0758 11.1375C19.25 10.9542 19.5525 10.9542 19.7358 11.1375L20.9458 12.3475C21.1292 12.5308 21.1292 12.8333 20.9458 13.0075Z" fill="#FF4667"/>
</g>
</svg>
