<svg width="68" height="68" viewBox="0 0 68 68" fill="none" xmlns="http://www.w3.org/2000/svg">
<path d="M28.999 39.0007L63.999 4.00057ZM29.4243 40.0941L38.1846 62.6207C38.9563 64.6054 39.3423 65.5974 39.8983 65.8871C40.3803 66.1384 40.9546 66.1387 41.4366 65.8881C41.993 65.5991 42.3803 64.6074 43.1543 62.6237L65.122 6.33124C65.821 4.54064 66.1703 3.64534 65.979 3.07324C65.813 2.5764 65.4233 2.1865 64.9263 2.02054C64.3543 1.82944 63.459 2.1788 61.6683 2.87757L5.37592 24.8454C3.39232 25.6195 2.40055 26.0065 2.11152 26.5628C1.86095 27.0451 1.86128 27.6194 2.11242 28.1014C2.40208 28.6574 3.39435 29.0431 5.37882 29.8151L27.9056 38.5754C28.3083 38.7321 28.5096 38.8104 28.6793 38.9314C28.8296 39.0384 28.961 39.1701 29.0683 39.3204C29.1893 39.4897 29.2676 39.6914 29.4243 40.0941Z" fill="white"/>
<path d="M28.999 39.0007L63.999 4.00057M29.4243 40.0941L38.1846 62.6207C38.9563 64.6054 39.3423 65.5974 39.8983 65.8871C40.3803 66.1384 40.9546 66.1387 41.4366 65.8881C41.993 65.5991 42.3803 64.6074 43.1543 62.6237L65.122 6.33124C65.821 4.54064 66.1703 3.64534 65.979 3.07324C65.813 2.5764 65.4233 2.1865 64.9263 2.02054C64.3543 1.82944 63.459 2.1788 61.6683 2.87757L5.37592 24.8454C3.39232 25.6195 2.40055 26.0065 2.11152 26.5628C1.86095 27.0451 1.86128 27.6194 2.11242 28.1014C2.40208 28.6574 3.39435 29.0431 5.37882 29.8151L27.9056 38.5754C28.3083 38.7321 28.5096 38.8104 28.6793 38.9314C28.8296 39.0384 28.961 39.1701 29.0683 39.3204C29.1893 39.4897 29.2676 39.6914 29.4243 40.0941Z" stroke="#4B3EF0" stroke-width="2" stroke-linecap="round" stroke-linejoin="round"/>
</svg>
