<svg xmlns="http://www.w3.org/2000/svg" width="114" height="114" viewBox="0 0 114 114" fill="none">
  <path d="M63.953 39.139L72.8326 36.6598C74.996 36.0554 77.2658 35.9337 79.4814 36.3034C81.697 36.673 83.8044 37.5249 85.6545 38.7989C87.5045 40.0729 89.0521 41.7378 90.1877 43.6758C91.3233 45.6139 92.0192 47.7778 92.2262 50.0145L94.0206 69.4132C94.3515 72.9875 93.4178 76.5647 91.3822 79.5214C89.3466 82.4781 86.3382 84.6269 82.8811 85.5934L51.5091 94.3525L39.139 50.047L39.8958 26.7998C40.2774 23.9471 42.4528 20.8483 46.2038 20.5413C52.1511 20.0469 59.3822 22.7681 61.3759 29.9087L63.953 39.139ZM31.7547 52.1087C28.8171 52.9289 26.3256 54.8825 24.8283 57.5397C23.331 60.1969 22.9507 63.34 23.7709 66.2776L29.9559 88.4304C30.7761 91.368 32.7297 93.8595 35.3869 95.3568C38.0441 96.8541 41.1872 97.2344 44.1248 96.4142L31.7547 52.1087Z" fill="url(#paint0_linear_381_6953)"/>
  <defs>
    <linearGradient id="paint0_linear_381_6953" x1="45.217" y1="51.9839" x2="91.9675" y2="66.9638" gradientUnits="userSpaceOnUse">
      <stop stop-color="#8543FE"/>
      <stop offset="0.977949" stop-color="#4437F1"/>
    </linearGradient>
  </defs>
</svg>