<svg width="20" height="20" viewBox="0 0 20 20" fill="none" xmlns="http://www.w3.org/2000/svg">
<path fill-rule="evenodd" clip-rule="evenodd" d="M8.11789 17.9644L7.57412 16.7594C7.38038 16.3294 7.05318 15.971 6.6396 15.7359C6.22577 15.5007 5.74704 15.4004 5.27191 15.4496L3.94146 15.5892C3.54545 15.6302 3.14586 15.5573 2.79103 15.3792C2.43621 15.2012 2.14136 14.9256 1.94214 14.5859C1.74287 14.2463 1.64794 13.8569 1.66886 13.4652C1.68977 13.0734 1.82565 12.696 2.05999 12.3788L2.84772 11.3124C3.12865 10.9318 3.27993 10.4733 3.27984 10.0026C3.27993 9.53194 3.12865 9.07344 2.84772 8.69277L2.05999 7.6264C1.82565 7.30921 1.68977 6.93184 1.66886 6.54005C1.64794 6.14827 1.74287 5.75893 1.94214 5.41927C2.14116 5.0794 2.43597 4.80372 2.79085 4.62565C3.14572 4.44757 3.54541 4.37475 3.94146 4.41603L5.27606 4.55557C5.75117 4.60473 6.22991 4.50455 6.64373 4.26936C7.05577 4.0335 7.38147 3.67518 7.57412 3.24575L8.11789 2.04085C8.27953 1.68218 8.54335 1.37743 8.87726 1.16355C9.21127 0.949679 9.60102 0.835873 9.99935 0.835938C10.3977 0.835873 10.7874 0.949679 11.1214 1.16355C11.4553 1.37743 11.7192 1.68218 11.8808 2.04085L12.4287 3.24575C12.6213 3.67518 12.947 4.0335 13.3591 4.26936C13.7729 4.50455 14.2517 4.60473 14.7268 4.55557L16.0573 4.41603C16.4533 4.37475 16.8529 4.44757 17.2078 4.62565C17.5627 4.80372 17.8575 5.0794 18.0565 5.41927C18.2558 5.75893 18.3508 6.14827 18.3298 6.54005C18.3089 6.93184 18.173 7.30921 17.9387 7.6264L17.1509 8.69277C16.87 9.07344 16.7188 9.53194 16.7188 10.0026C16.7164 10.4745 16.8663 10.9349 17.1468 11.3175L17.9346 12.3839C18.1689 12.7011 18.3048 13.0784 18.3257 13.4703C18.3466 13.862 18.2517 14.2514 18.0524 14.591C17.8534 14.9309 17.5586 15.2066 17.2037 15.3847C16.8488 15.5628 16.4492 15.6355 16.0531 15.5943L14.7227 15.4548C14.2475 15.4056 13.7688 15.5058 13.3549 15.7409C12.9438 15.9754 12.6181 16.3319 12.4246 16.7594L11.8808 17.9644C11.7192 18.323 11.4553 18.6278 11.1214 18.8417C10.7874 19.0555 10.3977 19.1694 9.99935 19.1693C9.60102 19.1694 9.21127 19.0555 8.87726 18.8417C8.54335 18.6278 8.27953 18.323 8.11789 17.9644ZM12.4993 10.0026C12.4993 11.3834 11.3801 12.5026 9.99935 12.5026C8.6186 12.5026 7.49935 11.3834 7.49935 10.0026C7.49935 8.62185 8.6186 7.5026 9.99935 7.5026C11.3801 7.5026 12.4993 8.62185 12.4993 10.0026Z" fill="#FF4667"/>
</svg>
