<svg xmlns="http://www.w3.org/2000/svg" width="16" height="16" viewBox="0 0 16 16" fill="none">
  <g clip-path="url(#clip0_57_8581)">
    <path d="M12.2361 10.6655C11.9367 10.6666 11.6407 10.7282 11.3658 10.8466C11.0908 10.965 10.8426 11.1377 10.6361 11.3544L5.2183 8.64325C5.35157 8.23914 5.35157 7.80292 5.2183 7.39881L10.645 4.63881C11.0337 5.04842 11.5608 5.29888 12.1239 5.3415C12.6869 5.38412 13.2457 5.21586 13.6917 4.86942C14.1376 4.52299 14.4388 4.02313 14.5367 3.46699C14.6346 2.91086 14.5222 2.33819 14.2214 1.86029C13.9207 1.38238 13.4529 1.03339 12.9091 0.881146C12.3654 0.728898 11.7844 0.78427 11.2792 1.0365C10.774 1.28873 10.3806 1.7198 10.1755 2.24592C9.97036 2.77204 9.9682 3.35563 10.1694 3.88325L4.79608 6.61658C4.50587 6.26167 4.11301 6.0052 3.67133 5.88233C3.22964 5.75946 2.76077 5.7762 2.32898 5.93026C1.89719 6.08432 1.52361 6.36815 1.25946 6.74286C0.995309 7.11756 0.853516 7.5648 0.853516 8.02325C0.853516 8.4817 0.995309 8.92894 1.25946 9.30364C1.52361 9.67835 1.89719 9.96218 2.32898 10.1162C2.76077 10.2703 3.22964 10.287 3.67133 10.1642C4.11301 10.0413 4.50587 9.78483 4.79608 9.42992L10.1561 12.1277C10.0655 12.3709 10.0189 12.6282 10.0183 12.8877C10.0183 13.3272 10.1486 13.7569 10.3928 14.1223C10.637 14.4877 10.9841 14.7726 11.3901 14.9408C11.7962 15.109 12.243 15.153 12.6741 15.0672C13.1051 14.9815 13.5011 14.7698 13.8119 14.459C14.1227 14.1483 14.3343 13.7523 14.42 13.3212C14.5058 12.8902 14.4618 12.4433 14.2936 12.0373C14.1254 11.6312 13.8406 11.2842 13.4751 11.04C13.1097 10.7958 12.68 10.6655 12.2405 10.6655H12.2361ZM12.2361 1.77658C12.4998 1.77658 12.7576 1.85478 12.9768 2.00129C13.1961 2.1478 13.367 2.35604 13.4679 2.59967C13.5688 2.84331 13.5952 3.1114 13.5438 3.37004C13.4923 3.62868 13.3654 3.86626 13.1789 4.05273C12.9924 4.2392 12.7548 4.36618 12.4962 4.41763C12.2376 4.46908 11.9695 4.44267 11.7258 4.34176C11.4822 4.24084 11.274 4.06994 11.1274 3.85068C10.9809 3.63141 10.9027 3.37363 10.9027 3.10992C10.9027 2.7563 11.0432 2.41716 11.2933 2.16711C11.5433 1.91706 11.8825 1.77658 12.2361 1.77658ZM3.11163 9.33214C2.84792 9.33214 2.59014 9.25394 2.37087 9.10743C2.1516 8.96092 1.98071 8.75269 1.87979 8.50905C1.77887 8.26542 1.75247 7.99733 1.80392 7.73869C1.85536 7.48004 1.98235 7.24247 2.16882 7.056C2.35529 6.86953 2.59287 6.74254 2.85151 6.69109C3.11015 6.63965 3.37824 6.66605 3.62188 6.76697C3.86551 6.86788 4.07375 7.03878 4.22026 7.25805C4.36677 7.47731 4.44496 7.7351 4.44496 7.99881C4.44496 8.35243 4.30449 8.69157 4.05444 8.94162C3.80439 9.19166 3.46525 9.33214 3.11163 9.33214ZM12.2361 14.221C11.9724 14.221 11.7146 14.1428 11.4953 13.9963C11.276 13.8498 11.1052 13.6416 11.0042 13.3979C10.9033 13.1543 10.8769 12.8862 10.9284 12.6276C10.9798 12.3689 11.1068 12.1314 11.2933 11.9449C11.4797 11.7584 11.7173 11.6314 11.976 11.58C12.2346 11.5285 12.5027 11.5549 12.7463 11.6559C12.99 11.7568 13.1982 11.9277 13.3447 12.1469C13.4912 12.3662 13.5694 12.624 13.5694 12.8877C13.5694 13.2413 13.4289 13.5805 13.1789 13.8305C12.9288 14.0806 12.5897 14.221 12.2361 14.221Z" fill="#34A853"/>
  </g>
  <defs>
    <clipPath id="clip0_57_8581">
      <rect width="16" height="16" fill="white"/>
    </clipPath>
  </defs>
</svg>