<svg width="11" height="11" viewBox="0 0 11 11" fill="none" xmlns="http://www.w3.org/2000/svg">
<path d="M5.56065 8.84986L3.03656 10.442C2.92506 10.5163 2.80848 10.5481 2.68684 10.5375C2.5652 10.5269 2.45876 10.4844 2.36753 10.4101C2.2763 10.3358 2.20534 10.2431 2.15465 10.1318C2.10397 10.0202 2.09383 9.89536 2.12424 9.75738L2.79328 6.74825L0.558089 4.72625C0.456719 4.63072 0.393465 4.52182 0.368325 4.39955C0.34278 4.27769 0.350282 4.15839 0.390829 4.04164C0.431377 3.92488 0.492198 3.82935 0.573294 3.75505C0.654389 3.68075 0.765895 3.63299 0.907812 3.61176L3.85765 3.3411L4.99806 0.507111C5.04874 0.379741 5.1274 0.284213 5.23404 0.220528C5.34028 0.156843 5.44915 0.125 5.56065 0.125C5.67216 0.125 5.78123 0.156843 5.88787 0.220528C5.99411 0.284213 6.07257 0.379741 6.12325 0.507111L7.26366 3.3411L10.2135 3.61176C10.3554 3.63299 10.4669 3.68075 10.548 3.75505C10.6291 3.82935 10.6899 3.92488 10.7305 4.04164C10.771 4.15839 10.7787 4.27769 10.7536 4.39955C10.728 4.52182 10.6646 4.63072 10.5632 4.72625L8.32803 6.74825L8.99707 9.75738C9.02748 9.89536 9.01734 10.0202 8.96666 10.1318C8.91597 10.2431 8.84501 10.3358 8.75378 10.4101C8.66255 10.4844 8.55611 10.5269 8.43447 10.5375C8.31283 10.5481 8.19625 10.5163 8.08475 10.442L5.56065 8.84986Z" fill="#FFA827"/>
</svg>
