<svg xmlns="http://www.w3.org/2000/svg" width="118" height="118" viewBox="0 0 118 118" fill="none">
  <path d="M83.4458 30.734C82.3171 30.1059 81.0756 29.7065 79.7923 29.5586C78.5091 29.4106 77.2093 29.5171 75.9672 29.8719C74.7252 30.2267 73.5653 30.8229 72.5538 31.6263C71.5423 32.4298 70.6991 33.4247 70.0725 34.5542L51.8169 67.4074L41.369 56.9595C40.4619 56.0203 39.3768 55.2712 38.1771 54.7558C36.9774 54.2405 35.6871 53.9692 34.3814 53.9579C33.0758 53.9465 31.7809 54.1953 30.5724 54.6897C29.364 55.1842 28.266 55.9143 27.3428 56.8376C26.4195 57.7609 25.6893 58.8588 25.1949 60.0673C24.7005 61.2758 24.4517 62.5706 24.463 63.8763C24.4744 65.1819 24.7456 66.4723 25.261 67.672C25.7763 68.8717 26.5255 69.9567 27.4646 70.8638L47.1313 90.5305C48.9898 92.3939 51.4973 93.4166 54.0835 93.4166L55.4454 93.3182C56.9526 93.1074 58.3903 92.5496 59.6453 91.6888C60.9003 90.8279 61.9384 89.6875 62.6778 88.3573L87.2611 44.1073C87.8888 42.9787 88.288 41.7375 88.4359 40.4546C88.5838 39.1717 88.4776 37.8723 88.1233 36.6304C87.769 35.3886 87.1736 34.2287 86.371 33.217C85.5685 32.2053 84.5745 31.3615 83.4458 30.734Z" fill="url(#paint0_linear_381_7004)"/>
  <defs>
    <linearGradient id="paint0_linear_381_7004" x1="56.4816" y1="29.4939" x2="56.4816" y2="93.4166" gradientUnits="userSpaceOnUse">
      <stop stop-color="#8543FE"/>
      <stop offset="1" stop-color="#4437F1"/>
    </linearGradient>
  </defs>
</svg>