<svg xmlns="http://www.w3.org/2000/svg" width="13" height="13" viewBox="0 0 13 13" fill="none">
  <path fill-rule="evenodd" clip-rule="evenodd" d="M9.76724 8.05524C9.84182 7.7655 10.1371 7.59109 10.4268 7.66567C11.5948 7.9663 12.4585 9.02591 12.4585 10.2886V11.372C12.4585 11.6711 12.2159 11.9136 11.9168 11.9136C11.6177 11.9136 11.3751 11.6711 11.3751 11.372V10.2886C11.3751 9.5322 10.8578 8.8952 10.1568 8.71483C9.86706 8.64024 9.69265 8.34492 9.76724 8.05524Z" fill="white"/>
  <path fill-rule="evenodd" clip-rule="evenodd" d="M7.89323 1.58075C8.00546 1.30346 8.32125 1.16966 8.59859 1.2819C9.59011 1.68327 10.2911 2.6557 10.2911 3.79317C10.2911 4.93064 9.59011 5.90307 8.59859 6.30444C8.32125 6.41668 8.00546 6.28289 7.89323 6.00561C7.78099 5.72827 7.91479 5.4125 8.19207 5.30025C8.7886 5.05878 9.2078 4.47428 9.2078 3.79317C9.2078 3.11206 8.7886 2.52755 8.19207 2.28609C7.91479 2.17384 7.78099 1.85805 7.89323 1.58075Z" fill="white"/>
  <path fill-rule="evenodd" clip-rule="evenodd" d="M3.88813 7.58596C4.72629 7.58623 5.56443 7.58623 6.40261 7.58596C6.99335 7.58574 7.39646 7.58563 7.74215 7.67826C8.6768 7.92867 9.4068 8.65867 9.65727 9.59332C9.78196 10.0588 9.74588 10.5562 9.74962 11.0332C9.75011 11.0911 9.75103 11.2082 9.72183 11.3171C9.6467 11.5975 9.42771 11.8165 9.14734 11.8916C9.03847 11.9208 8.9213 11.9198 8.8634 11.9194C6.38528 11.8996 3.90545 11.8996 1.42732 11.9194C1.36941 11.9198 1.25229 11.9208 1.14341 11.8916C0.863022 11.8165 0.644015 11.5975 0.568886 11.3171C0.539709 11.2082 0.540643 11.0911 0.541105 11.0332C0.544895 10.5574 0.508962 10.0581 0.633485 9.59332C0.883914 8.65867 1.61394 7.92867 2.54856 7.67826C2.89427 7.58563 3.29737 7.58574 3.88813 7.58596Z" fill="white"/>
  <path fill-rule="evenodd" clip-rule="evenodd" d="M2.4375 3.79427C2.4375 2.2985 3.65006 1.08594 5.14583 1.08594C6.64162 1.08594 7.85415 2.2985 7.85415 3.79427C7.85415 5.29004 6.64162 6.5026 5.14583 6.5026C3.65006 6.5026 2.4375 5.29004 2.4375 3.79427Z" fill="white"/>
</svg>