<svg width="18" height="18" viewBox="0 0 18 18" fill="none" xmlns="http://www.w3.org/2000/svg">
<path d="M14.25 6V1.5M12 3.75H16.5M16.5 9V12.9C16.5 14.1601 16.5 14.7901 16.2547 15.2715C16.039 15.6949 15.6949 16.039 15.2715 16.2547C14.7901 16.5 14.1601 16.5 12.9 16.5H5.1C3.83988 16.5 3.20982 16.5 2.72852 16.2547C2.30515 16.039 1.96095 15.6949 1.74524 15.2715C1.5 14.7901 1.5 14.1601 1.5 12.9V5.1C1.5 3.83988 1.5 3.20982 1.74524 2.72852C1.96095 2.30515 2.30515 1.96095 2.72852 1.74524C3.20982 1.5 3.83988 1.5 5.1 1.5H9M1.60931 14.9447C1.96116 13.6789 3.1221 12.75 4.5 12.75H9.75C10.447 12.75 10.7955 12.75 11.0853 12.8077C12.2753 13.0444 13.2056 13.9747 13.4423 15.1647C13.5 15.4545 13.5 15.803 13.5 16.5M10.5 7.125C10.5 8.78182 9.15682 10.125 7.5 10.125C5.84314 10.125 4.5 8.78182 4.5 7.125C4.5 5.46814 5.84314 4.125 7.5 4.125C9.15682 4.125 10.5 5.46814 10.5 7.125Z" stroke="#FFA827" stroke-linecap="round" stroke-linejoin="round"/>
</svg>
