<svg xmlns="http://www.w3.org/2000/svg" width="7" height="10" viewBox="0 0 7 10" fill="none">
  <mask id="path-1-inside-1_50_7583" fill="white">
    <path d="M3.5 0.714286C3.84612 0.714286 4.18446 0.819016 4.47225 1.01523C4.76003 1.21145 4.98434 1.49034 5.11679 1.81664C5.24924 2.14293 5.2839 2.50198 5.21637 2.84838C5.14885 3.19477 4.98218 3.51295 4.73744 3.76269C4.49269 4.01243 4.18087 4.1825 3.84141 4.2514C3.50194 4.3203 3.15007 4.28494 2.8303 4.14979C2.51053 4.01463 2.23722 3.78575 2.04493 3.49209C1.85264 3.19843 1.75 2.85318 1.75 2.5C1.75 2.0264 1.93437 1.5722 2.26256 1.23731C2.59075 0.902423 3.03587 0.714286 3.5 0.714286ZM3.5 0C3.01544 0 2.54175 0.146622 2.13885 0.421326C1.73595 0.69603 1.42193 1.08648 1.2365 1.54329C1.05106 2.00011 1.00254 2.50277 1.09708 2.98773C1.19161 3.47268 1.42495 3.91814 1.76759 4.26777C2.11023 4.6174 2.54678 4.8555 3.02203 4.95196C3.49728 5.04843 3.9899 4.99892 4.43757 4.8097C4.88525 4.62048 5.26789 4.30005 5.5371 3.88893C5.80631 3.4778 5.95 2.99445 5.95 2.5C5.95 1.83696 5.69188 1.20107 5.23241 0.732233C4.77295 0.263392 4.14978 0 3.5 0ZM7 10H6.3V8.21429C6.3 7.97978 6.25473 7.74758 6.16679 7.53092C6.07884 7.31427 5.94994 7.11741 5.78744 6.9516C5.62493 6.78578 5.43202 6.65424 5.2197 6.5645C5.00738 6.47476 4.77981 6.42857 4.55 6.42857H2.45C1.98587 6.42857 1.54075 6.61671 1.21256 6.9516C0.884374 7.28648 0.7 7.74068 0.7 8.21429V10H0V8.21429C0 7.55124 0.258124 6.91536 0.717588 6.44652C1.17705 5.97768 1.80022 5.71429 2.45 5.71429H4.55C5.19978 5.71429 5.82295 5.97768 6.28241 6.44652C6.74188 6.91536 7 7.55124 7 8.21429V10Z"/>
  </mask>
  <path d="M3.5 0.714286C3.84612 0.714286 4.18446 0.819016 4.47225 1.01523C4.76003 1.21145 4.98434 1.49034 5.11679 1.81664C5.24924 2.14293 5.2839 2.50198 5.21637 2.84838C5.14885 3.19477 4.98218 3.51295 4.73744 3.76269C4.49269 4.01243 4.18087 4.1825 3.84141 4.2514C3.50194 4.3203 3.15007 4.28494 2.8303 4.14979C2.51053 4.01463 2.23722 3.78575 2.04493 3.49209C1.85264 3.19843 1.75 2.85318 1.75 2.5C1.75 2.0264 1.93437 1.5722 2.26256 1.23731C2.59075 0.902423 3.03587 0.714286 3.5 0.714286ZM3.5 0C3.01544 0 2.54175 0.146622 2.13885 0.421326C1.73595 0.69603 1.42193 1.08648 1.2365 1.54329C1.05106 2.00011 1.00254 2.50277 1.09708 2.98773C1.19161 3.47268 1.42495 3.91814 1.76759 4.26777C2.11023 4.6174 2.54678 4.8555 3.02203 4.95196C3.49728 5.04843 3.9899 4.99892 4.43757 4.8097C4.88525 4.62048 5.26789 4.30005 5.5371 3.88893C5.80631 3.4778 5.95 2.99445 5.95 2.5C5.95 1.83696 5.69188 1.20107 5.23241 0.732233C4.77295 0.263392 4.14978 0 3.5 0ZM7 10H6.3V8.21429C6.3 7.97978 6.25473 7.74758 6.16679 7.53092C6.07884 7.31427 5.94994 7.11741 5.78744 6.9516C5.62493 6.78578 5.43202 6.65424 5.2197 6.5645C5.00738 6.47476 4.77981 6.42857 4.55 6.42857H2.45C1.98587 6.42857 1.54075 6.61671 1.21256 6.9516C0.884374 7.28648 0.7 7.74068 0.7 8.21429V10H0V8.21429C0 7.55124 0.258124 6.91536 0.717588 6.44652C1.17705 5.97768 1.80022 5.71429 2.45 5.71429H4.55C5.19978 5.71429 5.82295 5.97768 6.28241 6.44652C6.74188 6.91536 7 7.55124 7 8.21429V10Z" fill="white"/>
  <path d="M1.75 2.5H-1.25H1.75ZM7 10V13H10V10H7ZM6.3 10H3.3V13H6.3V10ZM6.3 8.21429H3.3H6.3ZM0.7 8.21429H-2.3H0.7ZM0.7 10V13H3.7V10H0.7ZM0 10H-3V13H0V10ZM0 8.21429H-3H0ZM2.45 5.71429V2.71429V5.71429ZM3.5 3.71429C3.23912 3.71429 2.98923 3.63505 2.78224 3.49392L6.16225 -1.46345C5.37969 -1.99701 4.45311 -2.28571 3.5 -2.28571V3.71429ZM2.78224 3.49392C2.57601 3.3533 2.42431 3.15989 2.33708 2.945L7.8965 0.688271C7.54436 -0.179212 6.94406 -0.930405 6.16225 -1.46345L2.78224 3.49392ZM2.33708 2.945C2.25006 2.73062 2.22819 2.4981 2.2718 2.27438L8.16095 3.42237C8.33961 2.50586 8.24843 1.55524 7.8965 0.688271L2.33708 2.945ZM2.2718 2.27438C2.31546 2.05037 2.42468 1.83649 2.5948 1.66291L6.88008 5.86248C7.53967 5.18942 7.98224 4.33917 8.16095 3.42237L2.2718 2.27438ZM2.5948 1.66291C2.76555 1.48867 2.99052 1.36294 3.24466 1.31135L4.43816 7.19145C5.37123 7.00206 6.21984 6.53618 6.88008 5.86248L2.5948 1.66291ZM3.24466 1.31135C3.49921 1.25969 3.76238 1.28678 3.99826 1.38648L1.66235 6.91309C2.53777 7.28311 3.50467 7.38092 4.43816 7.19145L3.24466 1.31135ZM3.99826 1.38648C4.23346 1.48589 4.42466 1.65001 4.55472 1.84864L-0.464866 5.13554C0.0497848 5.92149 0.787606 6.54337 1.66235 6.91309L3.99826 1.38648ZM4.55472 1.84864C4.68436 2.04662 4.75 2.27317 4.75 2.5H-1.25C-1.25 3.43319 -0.979093 4.35024 -0.464866 5.13554L4.55472 1.84864ZM4.75 2.5C4.75 2.80271 4.63272 3.10493 4.4052 3.3371L0.119925 -0.862476C-0.763974 0.039461 -1.25 1.25009 -1.25 2.5H4.75ZM4.4052 3.3371C4.17566 3.57132 3.8513 3.71429 3.5 3.71429V-2.28571C2.22044 -2.28571 1.00584 -1.76647 0.119925 -0.862476L4.4052 3.3371ZM3.5 -3C2.40844 -3 1.34652 -2.66941 0.448848 -2.05736L3.82886 2.90001C3.73699 2.96265 3.62243 3 3.5 3V-3ZM0.448848 -2.05736C-0.448074 -1.44582 -1.1381 -0.583075 -1.54322 0.414926L4.01621 2.67166C3.98196 2.75603 3.91998 2.83788 3.82886 2.90001L0.448848 -2.05736ZM-1.54322 0.414926C-1.94813 1.41242 -2.05317 2.50665 -1.8475 3.56172L4.04165 2.41373C4.05825 2.49889 4.05025 2.5878 4.01621 2.67166L-1.54322 0.414926ZM-1.8475 3.56172C-1.64178 4.61707 -1.13255 5.5946 -0.37505 6.36755L3.91023 2.16798C3.98245 2.24167 4.025 2.32828 4.04165 2.41373L-1.8475 3.56172ZM-0.37505 6.36755C0.383082 7.14116 1.35642 7.67506 2.42528 7.89201L3.61878 2.01191C3.73713 2.03594 3.83737 2.09364 3.91023 2.16798L-0.37505 6.36755ZM2.42528 7.89201C3.49455 8.10905 4.6022 7.99708 5.60553 7.57301L3.26962 2.04639C3.37759 2.00075 3.50001 1.98781 3.61878 2.01191L2.42528 7.89201ZM5.60553 7.57301C6.60818 7.14922 7.45533 6.43579 8.0469 5.53238L3.02731 2.24547C3.08046 2.16431 3.16233 2.09174 3.26962 2.04639L5.60553 7.57301ZM8.0469 5.53238C8.63804 4.62961 8.95 3.57447 8.95 2.5H2.95C2.95 2.41444 2.97458 2.32599 3.02731 2.24547L8.0469 5.53238ZM8.95 2.5C8.95 1.06065 8.39022 -0.331661 7.37505 -1.36755L3.08977 2.83202C2.99353 2.73381 2.95 2.61327 2.95 2.5H8.95ZM7.37505 -1.36755C6.35786 -2.4055 4.96521 -3 3.5 -3V3C3.33435 3 3.18803 2.93229 3.08977 2.83202L7.37505 -1.36755ZM7 7H6.3V13H7V7ZM9.3 10V8.21429H3.3V10H9.3ZM9.3 8.21429C9.3 7.59414 9.18037 6.97869 8.9465 6.40256L3.38708 8.65929C3.3291 8.51647 3.3 8.36543 3.3 8.21429H9.3ZM8.9465 6.40256C8.71259 5.82633 8.36819 5.29887 7.93008 4.85181L3.6448 9.05138C3.53169 8.93596 3.4451 8.80221 3.38708 8.65929L8.9465 6.40256ZM7.93008 4.85181C7.49183 4.40462 6.96827 4.0466 6.38766 3.80119L4.05174 9.32781C3.89576 9.26188 3.75803 9.16693 3.6448 9.05138L7.93008 4.85181ZM6.38766 3.80119C5.80691 3.55573 5.18229 3.42857 4.55 3.42857V9.42857C4.37734 9.42857 4.20785 9.39379 4.05174 9.32781L6.38766 3.80119ZM4.55 3.42857H2.45V9.42857H4.55V3.42857ZM2.45 3.42857C1.17044 3.42857 -0.0441615 3.94782 -0.930075 4.85181L3.3552 9.05138C3.12566 9.2856 2.8013 9.42857 2.45 9.42857V3.42857ZM-0.930075 4.85181C-1.81397 5.75375 -2.3 6.96437 -2.3 8.21429H3.7C3.7 8.517 3.58272 8.81922 3.3552 9.05138L-0.930075 4.85181ZM-2.3 8.21429V10H3.7V8.21429H-2.3ZM0.7 7H0V13H0.7V7ZM3 10V8.21429H-3V10H3ZM3 8.21429C3 8.32756 2.95647 8.4481 2.86023 8.5463L-1.42505 4.34673C-2.44022 5.38262 -3 6.77493 -3 8.21429H3ZM2.86023 8.5463C2.76197 8.64657 2.61565 8.71429 2.45 8.71429V2.71429C0.984788 2.71429 -0.407861 3.30879 -1.42505 4.34673L2.86023 8.5463ZM2.45 8.71429H4.55V2.71429H2.45V8.71429ZM4.55 8.71429C4.38435 8.71429 4.23803 8.64657 4.13977 8.5463L8.42505 4.34673C7.40786 3.30879 6.01521 2.71429 4.55 2.71429V8.71429ZM4.13977 8.5463C4.04353 8.4481 4 8.32756 4 8.21429H10C10 6.77493 9.44022 5.38262 8.42505 4.34673L4.13977 8.5463ZM4 8.21429V10H10V8.21429H4Z" fill="white" mask="url(#path-1-inside-1_50_7583)"/>
</svg>